<svg width="512" height="512" viewBox="0 0 512 512" fill="none" xmlns="http://www.w3.org/2000/svg">
<g clip-path="url(#clip0_832_22)">
<g filter="url(#filter0_d_832_22)">
<path d="M503.467 494.933H494.276L471.552 214.656C469.965 194.724 460.638 176.205 445.568 163.063L306.569 41.4464C277.578 16.2122 234.421 16.2122 205.431 41.4464L66.432 163.063C51.36 176.207 42.033 194.729 40.448 214.665L17.7237 494.933H8.53333C6.27015 494.933 4.09967 495.832 2.49936 497.433C0.899045 499.033 0 501.203 0 503.467C0 505.73 0.899045 507.9 2.49936 509.501C4.09967 511.101 6.27015 512 8.53333 512H503.467C505.73 512 507.9 511.101 509.501 509.501C511.101 507.9 512 505.73 512 503.467C512 501.203 511.101 499.033 509.501 497.433C507.9 495.832 505.73 494.933 503.467 494.933ZM34.8587 494.933L57.4635 216.038C58.7028 200.544 65.9554 186.149 77.6704 175.932L216.67 54.2891C239.217 34.6635 272.783 34.6635 295.33 54.2891L434.347 175.906C446.062 186.123 453.314 200.518 454.554 216.013L477.141 494.933H34.8587Z" fill="white"/>
</g>
<g filter="url(#filter1_d_832_22)">
<path d="M435.004 467.482L390.989 269.431C385.951 246.819 375.334 225.826 360.107 208.367C309.803 150.897 222.434 145.087 164.964 195.391C142.823 214.771 127.441 240.708 121.054 269.431L76.9961 467.482C76.7185 468.73 76.7249 470.024 77.0148 471.269C77.3048 472.515 77.8709 473.679 78.6713 474.676C79.4717 475.673 80.486 476.477 81.6391 477.03C82.7922 477.582 84.0547 477.868 85.3332 477.867H426.667C427.945 477.868 429.207 477.582 430.36 477.029C431.513 476.477 432.528 475.672 433.328 474.675C434.128 473.678 434.694 472.514 434.984 471.269C435.275 470.024 435.281 468.73 435.004 467.482ZM247.467 460.8H95.9743L137.677 273.135C149.28 220.788 193.974 182.336 247.467 178.679V460.8ZM264.533 460.8V383.898C276.607 413.066 294.817 439.294 317.926 460.8H264.533ZM321.547 440.412C298.513 416.463 281.711 387.226 272.614 355.268C287.529 370.304 306.95 380.052 327.919 383.027C320.108 401.089 317.888 421.077 321.547 440.412ZM346.607 460.8L345.617 458.82C339.406 446.476 336.426 432.759 336.956 418.95C337.485 405.142 341.508 391.693 348.646 379.861C349.424 378.567 349.844 377.089 349.864 375.578C349.884 374.068 349.503 372.58 348.759 371.265C348.015 369.951 346.936 368.857 345.631 368.096C344.327 367.335 342.844 366.934 341.333 366.933C327.288 366.916 313.495 363.194 301.348 356.143C289.2 349.092 279.127 338.963 272.145 326.775L264.533 313.472V178.645C318.039 182.298 362.741 220.77 374.323 273.135L416.025 460.8H346.607ZM503.467 34.1333C489.328 34.1333 477.867 22.672 477.867 8.53333C477.867 6.27015 476.968 4.09967 475.367 2.49936C473.767 0.899045 471.596 0 469.333 0C467.07 0 464.9 0.899045 463.299 2.49936C461.699 4.09967 460.8 6.27015 460.8 8.53333C460.8 22.672 449.339 34.1333 435.2 34.1333C432.937 34.1333 430.766 35.0324 429.166 36.6327C427.566 38.233 426.667 40.4035 426.667 42.6667C426.667 44.9299 427.566 47.1003 429.166 48.7006C430.766 50.301 432.937 51.2 435.2 51.2C449.339 51.2 460.8 62.6613 460.8 76.8C460.8 79.0632 461.699 81.2337 463.299 82.834C464.9 84.4343 467.07 85.3333 469.333 85.3333C471.596 85.3333 473.767 84.4343 475.367 82.834C476.968 81.2337 477.867 79.0632 477.867 76.8C477.867 62.6613 489.328 51.2 503.467 51.2C505.73 51.2 507.9 50.301 509.501 48.7006C511.101 47.1003 512 44.9299 512 42.6667C512 40.4035 511.101 38.233 509.501 36.6327C507.9 35.0324 505.73 34.1333 503.467 34.1333ZM469.333 51.4645C466.847 48.1168 463.883 45.1525 460.535 42.6667C463.883 40.1808 466.847 37.2165 469.333 33.8688C471.819 37.2163 474.784 40.1805 478.131 42.6667C474.783 45.1525 471.819 48.1168 469.333 51.4645ZM85.3332 85.3333C71.1945 85.3333 59.7332 73.872 59.7332 59.7333C59.7332 57.4702 58.8342 55.2997 57.2338 53.6994C55.6335 52.099 53.4631 51.2 51.1999 51.2C48.9367 51.2 46.7662 52.099 45.1659 53.6994C43.5656 55.2997 42.6665 57.4702 42.6665 59.7333C42.6665 73.872 31.2052 85.3333 17.0665 85.3333C14.8034 85.3333 12.6329 86.2324 11.0326 87.8327C9.43225 89.433 8.5332 91.6035 8.5332 93.8667C8.5332 96.1299 9.43225 98.3003 11.0326 99.9007C12.6329 101.501 14.8034 102.4 17.0665 102.4C31.2052 102.4 42.6665 113.861 42.6665 128C42.6665 130.263 43.5656 132.434 45.1659 134.034C46.7662 135.634 48.9367 136.533 51.1999 136.533C53.4631 136.533 55.6335 135.634 57.2338 134.034C58.8342 132.434 59.7332 130.263 59.7332 128C59.7332 113.861 71.1945 102.4 85.3332 102.4C87.5964 102.4 89.7669 101.501 91.3672 99.9007C92.9675 98.3003 93.8665 96.1299 93.8665 93.8667C93.8665 91.6035 92.9675 89.433 91.3672 87.8327C89.7669 86.2324 87.5964 85.3333 85.3332 85.3333ZM51.1999 102.665C48.7137 99.3171 45.7495 96.3528 42.402 93.8667C45.7495 91.3805 48.7137 88.4163 51.1999 85.0688C53.686 88.4163 56.6503 91.3805 59.9977 93.8667C56.65 96.3525 53.6857 99.3168 51.1999 102.665Z" fill="white"/>
</g>
</g>
<defs>
<filter id="filter0_d_832_22" x="-90" y="-63.4792" width="692" height="669.479" filterUnits="userSpaceOnUse" color-interpolation-filters="sRGB">
<feFlood flood-opacity="0" result="BackgroundImageFix"/>
<feColorMatrix in="SourceAlpha" type="matrix" values="0 0 0 0 0 0 0 0 0 0 0 0 0 0 0 0 0 0 127 0" result="hardAlpha"/>
<feOffset dy="4"/>
<feGaussianBlur stdDeviation="45"/>
<feComposite in2="hardAlpha" operator="out"/>
<feColorMatrix type="matrix" values="0 0 0 0 0.777798 0 0 0 0 0.441042 0 0 0 0 0.9125 0 0 0 1 0"/>
<feBlend mode="normal" in2="BackgroundImageFix" result="effect1_dropShadow_832_22"/>
<feBlend mode="normal" in="SourceGraphic" in2="effect1_dropShadow_832_22" result="shape"/>
</filter>
<filter id="filter1_d_832_22" x="-81.4668" y="-86" width="683.467" height="657.867" filterUnits="userSpaceOnUse" color-interpolation-filters="sRGB">
<feFlood flood-opacity="0" result="BackgroundImageFix"/>
<feColorMatrix in="SourceAlpha" type="matrix" values="0 0 0 0 0 0 0 0 0 0 0 0 0 0 0 0 0 0 127 0" result="hardAlpha"/>
<feOffset dy="4"/>
<feGaussianBlur stdDeviation="45"/>
<feComposite in2="hardAlpha" operator="out"/>
<feColorMatrix type="matrix" values="0 0 0 0 0.777798 0 0 0 0 0.441042 0 0 0 0 0.9125 0 0 0 1 0"/>
<feBlend mode="normal" in2="BackgroundImageFix" result="effect1_dropShadow_832_22"/>
<feBlend mode="normal" in="SourceGraphic" in2="effect1_dropShadow_832_22" result="shape"/>
</filter>
<clipPath id="clip0_832_22">
<rect width="512" height="512" fill="white"/>
</clipPath>
</defs>
</svg>
