<svg width="512" height="512" viewBox="0 0 512 512" fill="none" xmlns="http://www.w3.org/2000/svg">
<g clip-path="url(#clip0_832_17)">
<g filter="url(#filter0_d_832_17)">
<path d="M196.274 349.85H162.146V315.721C162.146 313.459 161.247 311.288 159.647 309.688C158.047 308.088 155.877 307.189 153.614 307.189H119.486C117.223 307.189 115.052 308.088 113.452 309.688C111.852 311.288 110.953 313.459 110.953 315.721V349.85H76.8251C74.5622 349.85 72.392 350.749 70.792 352.349C69.1919 353.949 68.293 356.119 68.293 358.382V392.51C68.293 394.773 69.1919 396.943 70.792 398.543C72.392 400.143 74.5622 401.042 76.8251 401.042H110.953V435.171C110.953 437.434 111.852 439.604 113.452 441.204C115.052 442.804 117.223 443.703 119.486 443.703H153.614C155.877 443.703 158.047 442.804 159.647 441.204C161.247 439.604 162.146 437.434 162.146 435.171V401.042H196.274C198.537 401.042 200.707 400.143 202.307 398.543C203.907 396.943 204.806 394.773 204.806 392.51V358.382C204.806 356.119 203.907 353.949 202.307 352.349C200.707 350.749 198.537 349.85 196.274 349.85ZM187.742 383.978H153.614C151.351 383.978 149.181 384.877 147.581 386.477C145.981 388.077 145.082 390.247 145.082 392.51V426.639H128.018V392.51C128.018 390.247 127.119 388.077 125.519 386.477C123.919 384.877 121.748 383.978 119.486 383.978H85.3571V366.914H119.486C121.748 366.914 123.919 366.015 125.519 364.415C127.119 362.815 128.018 360.645 128.018 358.382V324.254H145.082V358.382C145.082 360.645 145.981 362.815 147.581 364.415C149.181 366.015 151.351 366.914 153.614 366.914H187.742V383.978Z" fill="white"/>
</g>
<g filter="url(#filter1_d_832_17)">
<path d="M511.108 359.858C504.564 301.063 449.345 246.057 390.499 239.786C385.501 239.234 380.477 238.95 375.448 238.933H281.595V204.804H264.531V187.74C264.531 168.892 249.251 153.612 230.403 153.612H187.742C178.317 153.612 170.678 145.972 170.678 136.548C170.678 127.123 178.317 119.483 187.742 119.483H324.256C343.104 119.483 358.384 104.203 358.384 85.355C358.384 66.5066 343.104 51.2267 324.256 51.2267H281.595C272.17 51.2267 264.531 43.5872 264.531 34.1625V0.0341187H247.467V34.1625C247.467 53.0109 262.747 68.2908 281.595 68.2908H324.256C333.68 68.2908 341.32 75.9303 341.32 85.355C341.32 94.7798 333.68 102.419 324.256 102.419H187.742C168.894 102.419 153.614 117.699 153.614 136.548C153.614 155.396 168.894 170.676 187.742 170.676H230.403C239.827 170.676 247.467 178.315 247.467 187.74V204.804H230.403V238.933H136.55C131.516 238.944 126.485 239.229 121.482 239.786C62.6106 246.1 7.42501 301.106 0.897959 359.901C-7.67359 434.806 46.0999 502.478 121.006 511.05C151.508 514.54 182.297 507.647 208.398 491.484C219.636 484.127 232.481 479.588 245.846 478.25C252.447 477.729 259.078 477.705 265.683 478.182C279.258 479.495 292.311 484.086 303.719 491.56C367.854 531.196 451.977 511.337 491.613 447.201C507.741 421.104 514.608 390.336 511.108 359.858ZM247.467 221.868H264.531V238.933H247.467V221.868ZM464.48 455.085C425.906 498.231 361.938 507.491 312.712 477.055C298.965 468.104 283.239 462.647 266.903 461.159C263.274 460.897 259.637 460.766 255.999 460.767C252.117 460.767 248.32 460.929 244.498 461.228C228.41 462.769 212.932 468.172 199.38 476.978C143.279 511.688 69.6634 494.348 34.9527 438.248C20.8226 415.409 14.8009 388.476 17.8598 361.795C23.4739 311.268 72.7382 262.191 123.316 256.756C127.71 256.264 132.128 256.012 136.55 255.997H375.448C379.869 256 384.286 256.236 388.681 256.705C439.251 262.14 488.507 311.216 494.138 361.743C496.127 378.517 494.509 395.521 489.395 411.618C484.28 427.716 475.786 442.535 464.48 455.085Z" fill="white"/>
</g>
<g filter="url(#filter2_d_832_17)">
<path d="M375.448 290.125C356.6 290.125 341.32 305.405 341.32 324.254C341.32 343.102 356.6 358.382 375.448 358.382C394.297 358.382 409.577 343.102 409.577 324.254C409.577 305.405 394.297 290.125 375.448 290.125ZM375.448 341.318C366.023 341.318 358.384 333.678 358.384 324.254C358.384 314.829 366.023 307.189 375.448 307.189C384.873 307.189 392.512 314.829 392.512 324.254C392.512 333.678 384.872 341.318 375.448 341.318ZM375.448 392.51C356.6 392.51 341.32 407.79 341.32 426.639C341.32 445.487 356.6 460.767 375.448 460.767C394.297 460.767 409.577 445.487 409.577 426.639C409.577 407.79 394.297 392.51 375.448 392.51ZM375.448 443.703C366.023 443.703 358.384 436.063 358.384 426.639C358.384 417.214 366.023 409.574 375.448 409.574C384.873 409.574 392.512 417.214 392.512 426.639C392.512 436.063 384.872 443.703 375.448 443.703ZM315.724 341.318C296.875 341.318 281.595 356.598 281.595 375.446C281.595 394.295 296.875 409.574 315.724 409.574C334.572 409.574 349.852 394.295 349.852 375.446C349.852 356.598 334.572 341.318 315.724 341.318ZM315.724 392.51C306.299 392.51 298.659 384.871 298.659 375.446C298.659 366.021 306.299 358.382 315.724 358.382C325.148 358.382 332.788 366.021 332.788 375.446C332.788 384.871 325.147 392.51 315.724 392.51ZM435.173 341.318C416.324 341.318 401.044 356.598 401.044 375.446C401.044 394.295 416.324 409.574 435.173 409.574C454.021 409.574 469.301 394.295 469.301 375.446C469.301 356.598 454.021 341.318 435.173 341.318ZM435.173 392.51C425.748 392.51 418.109 384.871 418.109 375.446C418.109 366.021 425.748 358.382 435.173 358.382C444.598 358.382 452.237 366.021 452.237 375.446C452.237 384.871 444.597 392.51 435.173 392.51Z" fill="white"/>
</g>
</g>
<defs>
<filter id="filter0_d_832_17" x="-21.707" y="221.189" width="316.513" height="316.513" filterUnits="userSpaceOnUse" color-interpolation-filters="sRGB">
<feFlood flood-opacity="0" result="BackgroundImageFix"/>
<feColorMatrix in="SourceAlpha" type="matrix" values="0 0 0 0 0 0 0 0 0 0 0 0 0 0 0 0 0 0 127 0" result="hardAlpha"/>
<feOffset dy="4"/>
<feGaussianBlur stdDeviation="45"/>
<feComposite in2="hardAlpha" operator="out"/>
<feColorMatrix type="matrix" values="0 0 0 0 0.777798 0 0 0 0 0.441042 0 0 0 0 0.9125 0 0 0 1 0"/>
<feBlend mode="normal" in2="BackgroundImageFix" result="effect1_dropShadow_832_17"/>
<feBlend mode="normal" in="SourceGraphic" in2="effect1_dropShadow_832_17" result="shape"/>
</filter>
<filter id="filter1_d_832_17" x="-89.9998" y="-85.9659" width="692" height="691.932" filterUnits="userSpaceOnUse" color-interpolation-filters="sRGB">
<feFlood flood-opacity="0" result="BackgroundImageFix"/>
<feColorMatrix in="SourceAlpha" type="matrix" values="0 0 0 0 0 0 0 0 0 0 0 0 0 0 0 0 0 0 127 0" result="hardAlpha"/>
<feOffset dy="4"/>
<feGaussianBlur stdDeviation="45"/>
<feComposite in2="hardAlpha" operator="out"/>
<feColorMatrix type="matrix" values="0 0 0 0 0.777798 0 0 0 0 0.441042 0 0 0 0 0.9125 0 0 0 1 0"/>
<feBlend mode="normal" in2="BackgroundImageFix" result="effect1_dropShadow_832_17"/>
<feBlend mode="normal" in="SourceGraphic" in2="effect1_dropShadow_832_17" result="shape"/>
</filter>
<filter id="filter2_d_832_17" x="191.595" y="204.125" width="367.706" height="350.642" filterUnits="userSpaceOnUse" color-interpolation-filters="sRGB">
<feFlood flood-opacity="0" result="BackgroundImageFix"/>
<feColorMatrix in="SourceAlpha" type="matrix" values="0 0 0 0 0 0 0 0 0 0 0 0 0 0 0 0 0 0 127 0" result="hardAlpha"/>
<feOffset dy="4"/>
<feGaussianBlur stdDeviation="45"/>
<feComposite in2="hardAlpha" operator="out"/>
<feColorMatrix type="matrix" values="0 0 0 0 0.777798 0 0 0 0 0.441042 0 0 0 0 0.9125 0 0 0 1 0"/>
<feBlend mode="normal" in2="BackgroundImageFix" result="effect1_dropShadow_832_17"/>
<feBlend mode="normal" in="SourceGraphic" in2="effect1_dropShadow_832_17" result="shape"/>
</filter>
<clipPath id="clip0_832_17">
<rect width="512" height="512" fill="white"/>
</clipPath>
</defs>
</svg>
