<svg width="512" height="512" viewBox="0 0 512 512" fill="none" xmlns="http://www.w3.org/2000/svg">
<g clip-path="url(#clip0_832_26)">
<g filter="url(#filter0_d_832_26)">
<path d="M443.399 0C438.133 0.0218317 433.002 1.67027 428.708 4.7198C424.414 7.76933 421.167 12.071 419.412 17.0363H382.205C377.527 3.75544 362.969 -3.21879 349.688 1.4598C344.702 3.21566 340.386 6.47762 337.336 10.7943C334.286 15.111 332.653 20.2689 332.663 25.5544V59.627C332.626 73.7022 344.005 85.1442 358.081 85.1814C361.408 85.1899 364.704 84.5479 367.784 83.2904L351.88 136.29H315.627C314.473 136.287 313.33 136.522 312.271 136.98L256 161.095L199.729 136.98C198.67 136.522 197.527 136.287 196.373 136.29H160.12L144.216 83.2904C157.248 88.611 172.125 82.3609 177.446 69.3292C178.703 66.2495 179.345 62.9535 179.337 59.627V25.5544C179.363 11.4739 167.97 0.0383316 153.89 0.0117124C148.604 0.00160638 143.446 1.63456 139.13 4.6846C134.813 7.73464 131.551 12.051 129.795 17.0363H92.5879C87.9104 3.75544 73.3518 -3.21879 60.071 1.4598C55.0857 3.21579 50.7695 6.47779 47.7195 10.7944C44.6695 15.1111 43.0365 20.269 43.0464 25.5544V59.627C42.9836 73.6787 54.3244 85.1207 68.3762 85.1836C72.0925 85.2002 75.7674 84.4026 79.1423 82.8467C82.5173 81.2908 85.5105 79.0145 87.9115 76.1777L101.174 169.026C101.878 173.964 104.013 178.589 107.314 182.329C110.615 186.07 114.939 188.762 119.752 190.074L197.148 211.182L204.746 272.001L152.164 467.305C147.296 485.427 157.373 504.206 175.163 510.169C193.743 516.358 213.823 506.314 220.014 487.733C220.221 487.113 220.41 486.488 220.582 485.858L256 356.058L291.393 485.849C295.607 501.249 309.576 511.946 325.542 512C345.155 511.995 361.05 496.09 361.044 476.477C361.043 473.38 360.637 470.297 359.836 467.305L307.254 271.976L314.852 211.156L392.29 190.048C397.101 188.735 401.422 186.044 404.721 182.305C408.021 178.567 410.155 173.945 410.86 169.008L424.123 76.1607C433.223 86.868 449.28 88.1713 459.987 79.0707C462.805 76.6759 465.066 73.6958 466.615 70.3378C468.163 66.9799 468.961 63.3248 468.954 59.627V25.5544C468.954 11.4409 457.513 0 443.399 0ZM366.736 59.627C366.736 61.8862 365.838 64.0528 364.241 65.6502C362.643 67.2477 360.477 68.1451 358.218 68.1451C355.959 68.1451 353.792 67.2477 352.194 65.6502C350.597 64.0528 349.7 61.8862 349.7 59.627V25.5544C349.7 23.2953 350.597 21.1287 352.194 19.5312C353.792 17.9337 355.959 17.0363 358.218 17.0363C360.477 17.0363 362.643 17.9337 364.241 19.5312C365.838 21.1287 366.736 23.2953 366.736 25.5544V59.627ZM145.264 25.5544C145.264 23.2953 146.162 21.1287 147.759 19.5312C149.356 17.9337 151.523 17.0363 153.782 17.0363C156.041 17.0363 158.208 17.9337 159.805 19.5312C161.403 21.1287 162.3 23.2953 162.3 25.5544V59.627C162.3 61.8862 161.403 64.0528 159.805 65.6502C158.208 67.2477 156.041 68.1451 153.782 68.1451C151.523 68.1451 149.356 67.2477 147.759 65.6502C146.162 64.0528 145.264 61.8862 145.264 59.627V25.5544ZM77.119 59.627C77.119 61.8862 76.2215 64.0528 74.6241 65.6502C73.0266 67.2477 70.86 68.1451 68.6008 68.1451C66.3417 68.1451 64.1751 67.2477 62.5776 65.6502C60.9801 64.0528 60.0827 61.8862 60.0827 59.627V25.5544C60.0827 23.2953 60.9801 21.1287 62.5776 19.5312C64.1751 17.9337 66.3417 17.0363 68.6008 17.0363C70.86 17.0363 73.0266 17.9337 74.6241 19.5312C76.2215 21.1287 77.119 23.2953 77.119 25.5544V59.627ZM94.1553 51.1089V34.0726H128.228V51.1089H94.1553ZM393.994 166.606C393.758 168.248 393.048 169.785 391.951 171.029C390.854 172.273 389.417 173.169 387.818 173.608L304.911 196.215C303.283 196.66 301.823 197.578 300.718 198.854C299.612 200.129 298.91 201.704 298.701 203.379L290.183 271.524C290.045 272.619 290.12 273.73 290.405 274.795L343.43 471.743C346.091 481.561 340.288 491.677 330.47 494.338C320.652 496.999 310.536 491.196 307.875 481.377L264.263 321.449C263.772 319.645 262.702 318.052 261.216 316.916C259.73 315.78 257.913 315.165 256.043 315.165C254.173 315.165 252.355 315.78 250.869 316.916C249.383 318.052 248.313 319.645 247.823 321.449L204.21 481.377C201.547 491.196 191.429 496.996 181.611 494.333C171.793 491.67 165.992 481.553 168.655 471.735L221.68 274.795C221.965 273.73 222.041 272.619 221.902 271.524L213.384 203.379C213.175 201.704 212.473 200.129 211.368 198.854C210.262 197.578 208.802 196.66 207.174 196.215L124.275 173.608C122.673 173.17 121.234 172.273 120.136 171.027C119.037 169.782 118.326 168.242 118.091 166.598L103.977 68.1451H121.865L145.596 147.253C146.124 149.013 147.205 150.555 148.681 151.649C150.156 152.744 151.945 153.332 153.782 153.327H194.669L252.686 178.191C253.747 178.646 254.889 178.88 256.043 178.88C257.196 178.88 258.338 178.646 259.399 178.191L317.373 153.327H358.218C360.05 153.327 361.834 152.736 363.304 151.642C364.774 150.548 365.852 149.009 366.378 147.253L390.11 68.1451H407.998L393.994 166.606ZM417.845 51.1089H383.772V34.0726H417.845V51.1089ZM451.917 59.627C451.917 61.8862 451.02 64.0528 449.422 65.6502C447.825 67.2477 445.658 68.1451 443.399 68.1451C441.14 68.1451 438.973 67.2477 437.376 65.6502C435.778 64.0528 434.881 61.8862 434.881 59.627V25.5544C434.881 23.2953 435.778 21.1287 437.376 19.5312C438.973 17.9337 441.14 17.0363 443.399 17.0363C445.658 17.0363 447.825 17.9337 449.422 19.5312C451.02 21.1287 451.917 23.2953 451.917 25.5544V59.627Z" fill="white"/>
</g>
<g filter="url(#filter1_d_832_26)">
<path d="M290.073 51.1088H251.741C225.923 51.0438 204.941 71.9207 204.875 97.7382C204.862 102.982 205.731 108.191 207.447 113.146L207.387 113.223L207.557 113.402C216.161 137.804 242.917 150.611 267.32 142.007C286.012 135.417 298.533 117.778 298.591 97.9586V59.6269C298.591 57.3678 297.693 55.2012 296.096 53.6037C294.498 52.0062 292.332 51.1088 290.073 51.1088ZM281.554 97.9586C281.554 114.424 268.206 127.772 251.741 127.772C247.295 127.756 242.91 126.74 238.909 124.799C234.909 122.859 231.396 120.044 228.631 116.562C243.473 103.701 261.992 95.8464 281.554 94.1169V97.9586ZM281.554 77.0806C259.927 78.6744 239.253 86.619 222.123 99.9177C222.123 99.2618 221.927 98.6315 221.927 97.9586C221.927 81.493 235.275 68.1451 251.741 68.1451H281.554V77.0806Z" fill="white"/>
</g>
</g>
<defs>
<filter id="filter0_d_832_26" x="-46.9539" y="-86" width="605.907" height="692" filterUnits="userSpaceOnUse" color-interpolation-filters="sRGB">
<feFlood flood-opacity="0" result="BackgroundImageFix"/>
<feColorMatrix in="SourceAlpha" type="matrix" values="0 0 0 0 0 0 0 0 0 0 0 0 0 0 0 0 0 0 127 0" result="hardAlpha"/>
<feOffset dy="4"/>
<feGaussianBlur stdDeviation="45"/>
<feComposite in2="hardAlpha" operator="out"/>
<feColorMatrix type="matrix" values="0 0 0 0 0.777798 0 0 0 0 0.441042 0 0 0 0 0.9125 0 0 0 1 0"/>
<feBlend mode="normal" in2="BackgroundImageFix" result="effect1_dropShadow_832_26"/>
<feBlend mode="normal" in="SourceGraphic" in2="effect1_dropShadow_832_26" result="shape"/>
</filter>
<filter id="filter1_d_832_26" x="114.875" y="-34.8914" width="273.716" height="273.577" filterUnits="userSpaceOnUse" color-interpolation-filters="sRGB">
<feFlood flood-opacity="0" result="BackgroundImageFix"/>
<feColorMatrix in="SourceAlpha" type="matrix" values="0 0 0 0 0 0 0 0 0 0 0 0 0 0 0 0 0 0 127 0" result="hardAlpha"/>
<feOffset dy="4"/>
<feGaussianBlur stdDeviation="45"/>
<feComposite in2="hardAlpha" operator="out"/>
<feColorMatrix type="matrix" values="0 0 0 0 0.777798 0 0 0 0 0.441042 0 0 0 0 0.9125 0 0 0 1 0"/>
<feBlend mode="normal" in2="BackgroundImageFix" result="effect1_dropShadow_832_26"/>
<feBlend mode="normal" in="SourceGraphic" in2="effect1_dropShadow_832_26" result="shape"/>
</filter>
<clipPath id="clip0_832_26">
<rect width="512" height="512" fill="white"/>
</clipPath>
</defs>
</svg>
