<svg width="737" height="290" viewBox="0 0 737 290" fill="none" xmlns="http://www.w3.org/2000/svg">
<path d="M246.995 173.749H239.151C238.127 173.749 237.12 173.652 236.158 173.463C235.181 173.269 234.321 172.695 233.767 171.867C233.213 171.039 233.01 170.026 233.203 169.049C233.396 168.071 233.969 167.211 234.796 166.656C235.623 166.101 236.636 165.897 237.614 166.088C238.097 166.184 238.615 166.232 239.151 166.232H246.995C251.723 166.232 255.57 162.386 255.57 157.658V117.977C255.57 113.246 251.723 109.397 246.995 109.397H239.151C238.615 109.397 238.098 109.446 237.613 109.541C237.126 109.642 236.625 109.646 236.137 109.552C235.649 109.458 235.184 109.269 234.77 108.994C234.356 108.719 234.001 108.365 233.724 107.953C233.448 107.54 233.256 107.076 233.16 106.589C233.064 106.101 233.065 105.599 233.164 105.112C233.263 104.626 233.458 104.163 233.737 103.752C234.016 103.341 234.374 102.989 234.79 102.717C235.205 102.445 235.671 102.258 236.159 102.167C237.145 101.975 238.147 101.879 239.151 101.881H246.995C255.867 101.881 263.086 109.102 263.086 117.977V157.659C263.086 166.531 255.867 173.749 246.995 173.749Z" fill="white"/>
<path d="M246.995 173.749H239.151C238.127 173.749 237.12 173.652 236.158 173.463C235.181 173.269 234.321 172.695 233.767 171.867C233.213 171.039 233.01 170.026 233.203 169.049C233.396 168.071 233.969 167.211 234.796 166.656C235.623 166.101 236.636 165.897 237.614 166.088C238.097 166.184 238.614 166.232 239.151 166.232H246.995C251.723 166.232 255.569 162.386 255.569 157.658V117.977C255.569 113.246 251.723 109.397 246.995 109.397H239.151C238.615 109.397 238.097 109.446 237.613 109.541C237.126 109.642 236.624 109.646 236.136 109.552C235.649 109.458 235.184 109.269 234.77 108.994C234.356 108.719 234 108.365 233.724 107.953C233.447 107.54 233.256 107.076 233.16 106.589C233.064 106.101 233.065 105.599 233.164 105.112C233.263 104.626 233.458 104.163 233.737 103.752C234.016 103.341 234.374 102.989 234.789 102.717C235.205 102.445 235.671 102.258 236.159 102.167C237.145 101.975 238.147 101.879 239.151 101.881H246.995C255.867 101.881 263.086 109.102 263.086 117.977V157.659C263.086 166.531 255.867 173.749 246.995 173.749ZM23.9345 173.749H16.0905C7.21845 173.749 0 166.531 0 157.658V117.977C0 109.102 7.21792 101.881 16.0905 101.881H23.9345C24.9578 101.881 25.9644 101.977 26.9271 102.167C28.9635 102.568 30.2891 104.544 29.8875 106.581C29.4859 108.617 27.5074 109.943 25.4737 109.541C24.9665 109.444 24.451 109.395 23.9345 109.397H16.0905C11.3627 109.397 7.51643 113.246 7.51643 117.977V157.659C7.51643 162.387 11.3627 166.233 16.0905 166.233H23.9345C24.4713 166.233 24.9889 166.185 25.4721 166.089C27.5101 165.684 29.4853 167.011 29.8869 169.048C30.08 170.026 29.8767 171.041 29.3218 171.868C28.7669 172.696 27.9059 173.27 26.9281 173.463C25.9418 173.655 24.9392 173.75 23.9345 173.749Z" fill="white"/>
<path d="M23.9345 173.749H16.0905C7.21845 173.749 0 166.531 0 157.658V117.977C0 109.102 7.21792 101.881 16.0905 101.881H23.9345C24.9578 101.881 25.9644 101.977 26.9271 102.167C28.9635 102.568 30.2891 104.544 29.8875 106.581C29.4859 108.617 27.5074 109.943 25.4737 109.541C24.9665 109.444 24.451 109.395 23.9345 109.397H16.0905C11.3627 109.397 7.51643 113.246 7.51643 117.977V157.659C7.51643 162.387 11.3627 166.233 16.0905 166.233H23.9345C24.4713 166.233 24.9889 166.185 25.4721 166.089C27.5101 165.684 29.4853 167.011 29.8869 169.048C30.08 170.026 29.8767 171.041 29.3218 171.868C28.7669 172.696 27.9059 173.27 26.9281 173.463C25.9418 173.655 24.9392 173.75 23.9345 173.749Z" fill="white"/>
<path d="M203.38 224.952C202.613 224.952 201.864 224.718 201.234 224.28C200.604 223.842 200.123 223.223 199.856 222.504C199.588 221.785 199.547 221.001 199.738 220.258C199.929 219.515 200.343 218.848 200.924 218.347C216.233 205.146 227.413 188.008 233.26 168.781C233.269 168.747 233.279 168.714 233.289 168.68C236.31 158.713 237.841 148.328 237.841 137.814C237.841 127.3 236.309 116.916 233.289 106.949C233.279 106.915 233.269 106.881 233.26 106.848C219.77 62.4895 177.957 31.5164 131.543 31.5164C85.1284 31.5164 43.315 62.4911 29.8257 106.849C29.8166 106.883 29.807 106.916 29.7967 106.95C26.7762 116.916 25.2445 127.301 25.2445 137.815C25.2445 148.329 26.7762 158.714 29.7967 168.681L29.8263 168.783C35.673 188.01 46.8526 205.146 62.1619 218.347C62.9168 218.998 63.3822 219.923 63.4557 220.917C63.5292 221.911 63.2048 222.893 62.5539 223.648C61.9029 224.403 60.9788 224.868 59.9847 224.942C58.9906 225.015 58.0081 224.691 57.2532 224.04C40.8378 209.885 28.8561 191.498 22.6035 170.866C22.5928 170.831 22.5831 170.796 22.5734 170.762C19.358 160.118 17.728 149.034 17.728 137.815C17.728 126.596 19.3586 115.511 22.574 104.867C22.5831 104.832 22.5933 104.798 22.6035 104.764C29.5374 81.8835 43.9271 61.3185 63.123 46.8564C82.9696 31.9035 106.629 24 131.543 24C156.457 24 180.116 31.9035 199.963 46.8564C219.159 61.3185 233.548 81.8835 240.482 104.764C240.493 104.798 240.503 104.833 240.512 104.868C243.728 115.513 245.358 126.596 245.358 137.815C245.358 149.034 243.727 160.118 240.512 170.763C240.502 170.797 240.493 170.832 240.482 170.866C234.23 191.498 222.248 209.885 205.833 224.04C205.151 224.629 204.281 224.953 203.38 224.952Z" fill="white"/>
<path d="M131.543 209.122C106.646 209.122 85.2314 202.855 69.616 191C52.4786 177.99 43.4202 158.868 43.4202 135.705C43.4202 87.1138 82.9518 47.5817 131.543 47.5817C180.134 47.5817 219.666 87.1138 219.666 135.705C219.666 158.869 210.608 177.99 193.471 191C177.855 202.855 156.44 209.122 131.543 209.122ZM131.543 55.0982C87.0966 55.0982 50.9366 91.2581 50.9366 135.705C50.9366 184.293 92.5755 201.605 131.543 201.605C170.511 201.605 212.15 184.293 212.15 135.705C212.15 91.2581 175.99 55.0982 131.543 55.0982ZM222.103 257.02H40.9822C37.4296 257.02 34.5396 254.13 34.5396 250.577V223.878C34.5396 220.325 37.4296 217.435 40.9822 217.435H222.103C225.656 217.435 228.546 220.325 228.546 223.878V250.577C228.546 254.13 225.656 257.02 222.103 257.02ZM42.056 249.504H221.03V224.952H42.056V249.504Z" fill="white"/>
<path d="M222.103 257.02H40.9822C37.4296 257.02 34.5396 254.13 34.5396 250.577V223.878C34.5396 220.325 37.4296 217.435 40.9822 217.435H222.103C225.656 217.435 228.546 220.325 228.546 223.878V250.577C228.546 254.13 225.656 257.02 222.103 257.02ZM42.056 249.504H221.03V224.952H42.056V249.504ZM198.476 116.743C197.704 116.742 196.951 116.504 196.319 116.061C195.687 115.618 195.206 114.991 194.943 114.265C185.003 86.8561 168.94 82.2679 168.262 82.0864C166.248 81.5828 165.039 79.5464 165.542 77.5325C166.046 75.5187 168.103 74.3005 170.116 74.8019C170.947 75.0097 190.604 80.2529 202.01 111.702C202.216 112.269 202.282 112.878 202.202 113.477C202.123 114.076 201.901 114.647 201.554 115.141C201.207 115.636 200.747 116.039 200.211 116.318C199.675 116.597 199.08 116.742 198.476 116.743Z" fill="white"/>
<path d="M431.584 76.3281C424.423 76.901 418.729 77.7962 414.504 79.0137C410.35 80.1595 407.593 82.3438 406.232 85.5664L347.15 232.52H336.086L272.492 87.0703C269.842 81.1979 261.571 77.6172 247.678 76.3281C246.46 71.6016 246.604 66.9824 248.107 62.4707C281.265 63.4733 310.018 63.6165 334.367 62.9004C335.799 66.9824 335.799 71.5299 334.367 76.543C325.129 77.2591 319.328 78.0469 316.965 78.9062C314.602 79.7656 313.921 81.5202 314.924 84.1699L351.77 169.785L385.822 84.1699C386.252 83.0241 385.93 82.0215 384.855 81.1621C383.853 80.2311 382.134 79.4792 379.699 78.9062C377.336 78.3333 374.937 77.8678 372.502 77.5098C370.067 77.1517 367.095 76.8294 363.586 76.543C362.44 71.8164 362.583 67.1973 364.016 62.6855C387.648 63.5449 410.028 63.4733 431.154 62.4707C432.587 66.9824 432.73 71.6016 431.584 76.3281ZM428.039 72.1387C428.612 70.0618 428.612 68.3789 428.039 67.0898C418.658 67.5195 409.061 67.7344 399.25 67.7344C389.868 67.7344 379.234 67.5195 367.346 67.0898C366.773 68.3789 366.773 70.0618 367.346 72.1387C370.568 72.4251 373.254 72.7116 375.402 72.998C377.622 73.2845 380.308 73.8216 383.459 74.6094C386.61 75.3971 388.794 76.6146 390.012 78.2617C391.301 79.9089 391.516 81.8066 390.656 83.9551L346.184 195.781L298.703 85.3516C296.626 80.4818 297.45 77.3307 301.174 75.8984C304.969 74.3945 314.637 73.1413 330.178 72.1387C330.751 70.0618 330.751 68.3789 330.178 67.0898C309.051 68.0924 282.733 68.0924 251.223 67.0898C250.578 68.3789 250.578 70.0618 251.223 72.1387C264.686 73.4277 273.101 77.832 276.467 85.3516L338.986 228.115H344.035L402.15 83.9551C404.156 79.873 407.307 77.0443 411.604 75.4688C415.972 73.8216 421.451 72.7116 428.039 72.1387ZM471.438 74.0723C487.622 74.0723 495.715 79.9447 495.715 91.6895C495.715 103.434 487.622 109.307 471.438 109.307C469.003 109.307 466.711 108.841 464.562 107.91C462.486 106.979 460.66 105.726 459.084 104.15C457.508 102.503 456.255 100.605 455.324 98.457C454.393 96.3086 453.928 94.0527 453.928 91.6895C453.928 89.3262 454.393 87.0703 455.324 84.9219C456.255 82.7734 457.508 80.9115 459.084 79.3359C460.66 77.6888 462.486 76.3997 464.562 75.4688C466.711 74.5378 469.003 74.0723 471.438 74.0723ZM461.555 82.4512C459.406 84.9577 458.332 88.0371 458.332 91.6895C458.332 93.5514 458.618 95.306 459.191 96.9531C459.836 98.5286 460.695 99.9251 461.77 101.143C462.844 102.288 464.061 103.219 465.422 103.936C466.854 104.58 468.358 104.902 469.934 104.902C471.438 104.902 472.906 104.58 474.338 103.936C475.77 103.219 477.023 102.288 478.098 101.143C479.172 99.9251 480.031 98.5286 480.676 96.9531C481.32 95.306 481.643 93.5514 481.643 91.6895C481.643 89.8275 481.32 88.1087 480.676 86.5332C480.031 84.8861 479.172 83.4896 478.098 82.3438C477.023 81.1263 475.77 80.1953 474.338 79.5508C472.906 78.8346 471.438 78.4766 469.934 78.4766C468.43 78.4766 466.962 78.7988 465.529 79.4434C464.097 80.0879 462.772 81.0905 461.555 82.4512ZM504.953 220.059C487.909 218.483 479.315 215.046 479.172 209.746C478.456 188.262 478.169 161.872 478.312 130.576C477.74 129.43 476.486 128.499 474.553 127.783C464.598 132.438 454.25 135.374 443.508 136.592C443.078 138.311 443.078 139.993 443.508 141.641C451.6 142.07 457.759 143.538 461.984 146.045C462.629 172.757 462.557 193.991 461.77 209.746C461.626 215.046 455.539 218.483 443.508 220.059C442.792 221.849 442.792 223.604 443.508 225.322C464.061 224.893 484.543 224.893 504.953 225.322C505.669 223.604 505.669 221.849 504.953 220.059ZM508.928 216.084C510.074 220.524 510.074 224.857 508.928 229.082C485.868 228.366 462.772 228.366 439.641 229.082C438.423 224.857 438.423 220.524 439.641 216.084C451.314 214.938 457.222 212.754 457.365 209.531C458.296 189.479 458.368 169.176 457.58 148.623C452.782 147.191 446.802 146.26 439.641 145.83C437.993 141.533 437.993 136.986 439.641 132.188C450.454 131.615 462.629 128.392 476.164 122.52C483.898 123.092 489.663 125.42 493.459 129.502C493.173 164.736 493.459 191.413 494.318 209.531C494.533 212.754 499.403 214.938 508.928 216.084ZM559.523 140.352H601.74C602.743 137.559 602.743 134.98 601.74 132.617H559.523V109.092C557.733 108.304 555.943 108.304 554.152 109.092C551.503 114.033 548.566 118.366 545.344 122.09C542.121 125.742 539.4 128.32 537.18 129.824C535.031 131.257 531.916 133.118 527.834 135.41C527.333 136.914 527.333 138.561 527.834 140.352H540.939V196.641C540.939 217.624 549.605 228.115 566.936 228.115C574.312 228.115 581.115 226.217 587.346 222.422C593.576 218.555 598.231 213.828 601.311 208.242C600.666 206.667 599.484 205.807 597.766 205.664C591.034 211.68 584.517 214.688 578.215 214.688C565.754 214.688 559.523 209.03 559.523 197.715V140.352ZM596.477 201.045C600.988 201.618 604.211 204.089 606.145 208.457C602.421 215.26 597.014 220.954 589.924 225.537C582.834 230.192 575.171 232.52 566.936 232.52C546.74 232.52 536.643 220.56 536.643 196.641V144.648H523.43C522.355 140.853 522.355 136.914 523.43 132.832C527.798 130.326 531.128 128.285 533.42 126.709C535.712 125.062 538.576 122.412 542.014 118.76C545.451 115.107 548.495 110.703 551.145 105.547C557.876 102.754 565.718 102.897 574.67 105.977V128.213H605.93C608.221 133.512 608.221 138.991 605.93 144.648H574.67V197.715C574.67 204.59 577.141 208.636 582.082 209.854C586.379 208.923 591.177 205.986 596.477 201.045ZM648.469 146.904C651.835 147.477 654.484 148.802 656.418 150.879C658.423 152.884 659.426 155.462 659.426 158.613C659.426 162.409 658.173 165.56 655.666 168.066C653.16 170.501 649.865 171.719 645.783 171.719C641.558 171.719 637.727 170.215 634.289 167.207C630.852 164.199 629.133 159.938 629.133 154.424C629.133 145.042 633.573 137.451 642.453 131.65C651.405 125.85 663.078 122.949 677.473 122.949C691.151 122.949 700.747 125.706 706.262 131.221C711.848 136.663 714.641 145.866 714.641 158.828V196.426L721.516 196.211C727.388 196.641 731.47 199.434 733.762 204.59L730.324 210.498C728.104 213.864 726.242 216.478 724.738 218.34C723.306 220.13 721.229 222.171 718.508 224.463C715.786 226.755 712.6 228.402 708.947 229.404C705.295 230.407 701.034 230.908 696.164 230.908C690.148 230.908 685.601 228.652 682.521 224.141C674.787 229.727 664.689 232.52 652.229 232.52C646.786 232.52 642.131 231.66 638.264 229.941C634.468 228.294 631.675 226.074 629.885 223.281C628.166 220.488 626.949 217.874 626.232 215.439C625.516 213.005 625.158 210.534 625.158 208.027C625.158 197.5 628.703 189.622 635.793 184.395C642.883 179.167 657.206 173.796 678.762 168.281V156.572C678.762 150.843 677.544 146.654 675.109 144.004C672.746 141.354 669.667 140.029 665.871 140.029C657.779 140.029 651.978 142.321 648.469 146.904ZM683.166 178.379V200.83C676.291 209.925 669.273 214.473 662.111 214.473C657.958 214.473 654.556 213.47 651.906 211.465C649.328 209.46 648.039 206.631 648.039 202.979C648.039 197.106 650.438 192.272 655.236 188.477C660.106 184.681 669.416 181.315 683.166 178.379ZM678.762 199.434V186.328C668.378 190.124 663.186 195.674 663.186 202.979C663.186 206.058 664.296 208.206 666.516 209.424C670.311 208.063 674.393 204.733 678.762 199.434ZM645.783 162.266C643.277 162.266 641.522 160.439 640.52 156.787C639.087 150.915 640.842 145.794 645.783 141.426C650.653 137.129 657.993 134.98 667.805 134.98C672.46 134.98 676.184 136.807 678.977 140.459C681.77 144.04 683.166 149.411 683.166 156.572V171.504C662.04 176.947 647.824 182.103 640.52 186.973C633.215 191.771 629.562 198.789 629.562 208.027C629.562 212.897 631.21 217.48 634.504 221.777C637.798 226.003 643.706 228.115 652.229 228.115C655.594 228.115 658.745 227.578 661.682 226.504C664.689 225.43 667.769 223.711 670.92 221.348C674.143 218.913 676.112 217.373 676.828 216.729C677.544 216.084 678.726 214.974 680.373 213.398C682.092 211.751 683.023 210.856 683.166 210.713C684.097 221.24 688.43 226.504 696.164 226.504C698.098 226.504 700.318 226.003 702.824 225C705.331 223.997 707.837 222.028 710.344 219.092C712.922 216.156 714.533 214.222 715.178 213.291C715.894 212.288 716.932 210.749 718.293 208.672C719.654 206.523 720.656 205.055 721.301 204.268C720.37 202.262 718.579 201.117 715.93 200.83C711.991 206.846 707.98 209.782 703.898 209.639C700.962 209.495 699.494 207.419 699.494 203.408V158.828C699.494 147.37 697.238 139.277 692.727 134.551C688.286 129.753 680.624 127.354 669.738 127.354C659.927 127.354 651.405 129.896 644.172 134.98C637.01 139.993 633.43 146.475 633.43 154.424C633.43 158.506 634.683 161.693 637.189 163.984C639.696 166.204 642.561 167.314 645.783 167.314C646.786 165.882 646.786 164.199 645.783 162.266Z" fill="white"/>
</svg>
