<svg width="60" height="65" viewBox="0 0 60 65" fill="none" xmlns="http://www.w3.org/2000/svg">
<ellipse cx="30" cy="32.5" rx="30" ry="32.5" fill="#C670E9"/>
<g clip-path="url(#clip0_666_20)">
<path d="M41.7068 43.2938L35.7378 37.3248C37.3644 35.3354 38.1642 32.7969 37.9716 30.2343C37.7791 27.6718 36.609 25.2813 34.7034 23.5573C32.7977 21.8333 30.3024 20.9077 27.7334 20.9719C25.1645 21.0361 22.7185 22.0853 20.9014 23.9024C19.0843 25.7195 18.0351 28.1655 17.9709 30.7344C17.9067 33.3034 18.8323 35.7987 20.5563 37.7043C22.2803 39.61 24.6708 40.7801 27.2333 40.9726C29.7959 41.1651 32.3344 40.3654 34.3238 38.7388L40.2928 44.7078C40.4814 44.8899 40.734 44.9907 40.9962 44.9884C41.2584 44.9862 41.5092 44.881 41.6946 44.6956C41.88 44.5102 41.9852 44.2594 41.9875 43.9972C41.9897 43.735 41.8889 43.4824 41.7068 43.2938ZM27.9998 39.0008C26.4175 39.0008 24.8708 38.5316 23.5552 37.6525C22.2396 36.7735 21.2142 35.524 20.6087 34.0622C20.0032 32.6004 19.8448 30.9919 20.1535 29.44C20.4622 27.8882 21.2241 26.4627 22.3429 25.3439C23.4617 24.2251 24.8872 23.4632 26.4391 23.1545C27.9909 22.8458 29.5994 23.0042 31.0613 23.6097C32.5231 24.2152 33.7725 25.2406 34.6515 26.5562C35.5306 27.8718 35.9998 29.4185 35.9998 31.0008C35.9974 33.1218 35.1538 35.1552 33.654 36.655C32.1542 38.1548 30.1208 38.9984 27.9998 39.0008Z" fill="white"/>
</g>
<defs>
<clipPath id="clip0_666_20">
<rect width="24" height="24" fill="white" transform="translate(18 21)"/>
</clipPath>
</defs>
</svg>
