<svg width="491" height="435" viewBox="0 0 491 435" fill="none" xmlns="http://www.w3.org/2000/svg">
<path d="M401 201.5C401 280.201 327.215 340.922 251 340.922C174.785 340.922 84.5 285.622 84.5 206.922C84.5 128.221 166.785 51.5 243 51.5C319.215 51.5 401 122.799 401 201.5Z" fill="#823C9E"/>
<path d="M460.05 278.92H445.44C443.532 278.92 441.656 278.74 439.865 278.387C438.045 278.026 436.443 276.957 435.411 275.415C434.379 273.874 434.001 271.986 434.36 270.166C434.72 268.346 435.787 266.743 437.327 265.709C438.867 264.675 440.755 264.295 442.576 264.652C443.476 264.83 444.44 264.92 445.44 264.92H460.05C468.856 264.92 476.02 257.756 476.02 248.95V175.04C476.02 166.228 468.856 159.06 460.05 159.06H445.44C444.441 159.06 443.477 159.15 442.574 159.328C441.668 159.517 440.733 159.524 439.824 159.349C438.915 159.174 438.05 158.82 437.279 158.309C436.508 157.797 435.845 157.138 435.331 156.369C434.816 155.6 434.459 154.736 434.28 153.828C434.101 152.92 434.103 151.986 434.288 151.079C434.473 150.172 434.835 149.311 435.355 148.545C435.874 147.779 436.541 147.124 437.315 146.617C438.089 146.11 438.957 145.762 439.867 145.593C441.703 145.235 443.569 145.057 445.44 145.06H460.05C476.575 145.06 490.02 158.509 490.02 175.04V248.951C490.02 265.476 476.575 278.92 460.05 278.92Z" fill="#823C9E"/>
<path d="M460.05 278.92H445.44C443.532 278.92 441.656 278.74 439.865 278.387C438.045 278.026 436.444 276.957 435.412 275.415C434.38 273.874 434.002 271.986 434.361 270.166C434.72 268.346 435.787 266.743 437.327 265.709C438.868 264.675 440.756 264.295 442.576 264.652C443.476 264.83 444.44 264.92 445.44 264.92H460.05C468.856 264.92 476.02 257.756 476.02 248.95V175.04C476.02 166.228 468.856 159.06 460.05 159.06H445.44C444.441 159.06 443.477 159.15 442.574 159.328C441.668 159.517 440.733 159.524 439.825 159.349C438.916 159.174 438.051 158.82 437.279 158.309C436.508 157.797 435.846 157.138 435.331 156.369C434.816 155.6 434.459 154.736 434.28 153.828C434.101 152.92 434.104 151.986 434.288 151.079C434.473 150.172 434.836 149.311 435.355 148.545C435.875 147.779 436.541 147.124 437.315 146.617C438.09 146.11 438.957 145.762 439.867 145.593C441.703 145.235 443.569 145.057 445.44 145.06H460.05C476.575 145.06 490.02 158.509 490.02 175.04V248.951C490.02 265.476 476.575 278.92 460.05 278.92ZM44.58 278.92H29.97C13.445 278.92 0 265.476 0 248.95V175.04C0 158.509 13.444 145.06 29.97 145.06H44.58C46.486 145.06 48.361 145.239 50.154 145.593C53.947 146.34 56.416 150.021 55.668 153.814C54.92 157.607 51.235 160.076 47.447 159.328C46.5022 159.146 45.5421 159.056 44.58 159.06H29.97C21.164 159.06 14 166.228 14 175.04V248.951C14 257.757 21.164 264.921 29.97 264.921H44.58C45.58 264.921 46.544 264.831 47.444 264.653C51.24 263.898 54.919 266.371 55.667 270.165C56.0265 271.986 55.6479 273.876 54.6144 275.418C53.5809 276.96 51.9772 278.028 50.156 278.388C48.3189 278.745 46.4515 278.923 44.58 278.92Z" fill="#823C9E"/>
<path d="M44.58 278.92H29.97C13.445 278.92 0 265.476 0 248.95V175.04C0 158.509 13.444 145.06 29.97 145.06H44.58C46.486 145.06 48.361 145.239 50.154 145.593C53.947 146.34 56.416 150.021 55.668 153.814C54.92 157.607 51.235 160.076 47.447 159.328C46.5022 159.146 45.5421 159.056 44.58 159.06H29.97C21.164 159.06 14 166.228 14 175.04V248.951C14 257.757 21.164 264.921 29.97 264.921H44.58C45.58 264.921 46.544 264.831 47.444 264.653C51.24 263.898 54.919 266.371 55.667 270.165C56.0265 271.986 55.6479 273.876 54.6144 275.418C53.5809 276.96 51.9772 278.028 50.156 278.388C48.3189 278.745 46.4515 278.923 44.58 278.92Z" fill="#823C9E"/>
<path d="M378.813 374.29C377.384 374.291 375.989 373.854 374.816 373.039C373.642 372.224 372.746 371.069 372.248 369.73C371.75 368.391 371.674 366.932 372.029 365.548C372.385 364.164 373.156 362.922 374.238 361.989C402.753 337.4 423.577 305.479 434.467 269.667C434.484 269.604 434.502 269.542 434.521 269.479C440.148 250.915 443 231.572 443 211.989C443 192.406 440.147 173.064 434.521 154.499C434.502 154.437 434.484 154.374 434.467 154.311C409.341 71.69 331.461 14 245.01 14C158.559 14 80.6775 71.693 55.5525 154.314C55.5356 154.377 55.5176 154.439 55.4985 154.501C49.8725 173.065 47.0195 192.408 47.0195 211.991C47.0195 231.574 49.8725 250.916 55.4985 269.481L55.5535 269.67C66.4435 305.483 87.2665 337.401 115.782 361.989C117.188 363.201 118.054 364.923 118.191 366.774C118.328 368.626 117.724 370.456 116.512 371.862C115.299 373.268 113.578 374.135 111.726 374.272C109.875 374.409 108.045 373.804 106.639 372.592C76.0635 346.227 53.7465 311.979 42.1005 273.55C42.0805 273.486 42.0625 273.421 42.0445 273.357C36.0555 253.531 33.0195 232.886 33.0195 211.99C33.0195 191.094 36.0565 170.448 42.0455 150.621C42.0625 150.557 42.0815 150.494 42.1005 150.43C55.0155 107.813 81.8175 69.509 117.572 42.572C154.538 14.721 198.606 0 245.01 0C291.414 0 335.482 14.721 372.448 42.572C408.202 69.509 435.004 107.813 447.919 150.43C447.939 150.494 447.957 150.559 447.975 150.623C453.964 170.45 457 191.094 457 211.99C457 232.886 453.963 253.532 447.974 273.359C447.956 273.423 447.939 273.487 447.919 273.55C436.273 311.979 413.956 346.227 383.381 372.591C382.112 373.689 380.49 374.292 378.813 374.29Z" fill="#823C9E"/>
<path d="M245.01 344.805C198.637 344.805 158.751 333.133 129.666 311.052C97.746 286.819 80.874 251.204 80.874 208.06C80.874 117.555 154.505 43.923 245.01 43.923C335.515 43.923 409.147 117.555 409.147 208.06C409.147 251.206 392.275 286.819 360.356 311.052C331.27 333.133 291.384 344.805 245.01 344.805ZM245.01 57.923C162.225 57.923 94.874 125.274 94.874 208.06C94.874 298.56 172.43 330.805 245.01 330.805C317.591 330.805 395.147 298.56 395.147 208.06C395.147 125.274 327.796 57.923 245.01 57.923ZM76.333 434.02C69.716 434.02 64.333 428.637 64.333 422.02V372.29C64.333 365.673 69.716 360.29 76.333 360.29H413.687C420.304 360.29 425.687 365.673 425.687 372.29V422.02C425.687 428.637 420.304 434.02 413.687 434.02H76.333ZM411.687 420.02V374.29H78.333V420.02H411.687Z" fill="#823C9E"/>
<path d="M245.01 344.805C198.637 344.805 158.751 333.133 129.666 311.052C97.746 286.819 80.874 251.204 80.874 208.06C80.874 117.555 154.505 43.923 245.01 43.923C335.515 43.923 409.147 117.555 409.147 208.06C409.147 251.206 392.275 286.819 360.356 311.052C331.27 333.133 291.384 344.805 245.01 344.805ZM245.01 57.923C162.225 57.923 94.874 125.274 94.874 208.06C94.874 298.56 172.43 330.805 245.01 330.805C317.591 330.805 395.147 298.56 395.147 208.06C395.147 125.274 327.796 57.923 245.01 57.923ZM76.333 434.02C69.716 434.02 64.333 428.637 64.333 422.02V372.29C64.333 365.673 69.716 360.29 76.333 360.29H413.687C420.304 360.29 425.687 365.673 425.687 372.29V422.02C425.687 428.637 420.304 434.02 413.687 434.02H76.333ZM411.687 420.02V374.29H78.333V420.02H411.687Z" stroke="#823C9E"/>
<path d="M413.687 434.02H76.333C69.716 434.02 64.333 428.637 64.333 422.02V372.29C64.333 365.673 69.716 360.29 76.333 360.29H413.687C420.304 360.29 425.687 365.673 425.687 372.29V422.02C425.687 428.637 420.304 434.02 413.687 434.02ZM78.333 420.02H411.687H376.261H95.5H78.333ZM369.679 172.741C368.241 172.74 366.838 172.297 365.661 171.472C364.483 170.646 363.589 169.478 363.098 168.126C344.584 117.075 314.666 108.529 313.402 108.191C309.652 107.253 307.399 103.46 308.337 99.709C309.275 95.958 313.107 93.689 316.855 94.623C318.403 95.01 355.017 104.776 376.261 163.352C376.644 164.41 376.768 165.544 376.62 166.659C376.472 167.774 376.058 168.837 375.412 169.758C374.766 170.679 373.908 171.431 372.91 171.951C371.912 172.47 370.804 172.741 369.679 172.741Z" fill="#823C9E"/>
</svg>
