<svg width="60" height="65" viewBox="0 0 60 65" fill="none" xmlns="http://www.w3.org/2000/svg">
<ellipse cx="30" cy="32.5" rx="30" ry="32.5" fill="#C670E9"/>
<g clip-path="url(#clip0_671_12)">
<path d="M41 32H31V22C31 21.7348 30.8946 21.4804 30.7071 21.2929C30.5196 21.1054 30.2652 21 30 21V21C29.7348 21 29.4804 21.1054 29.2929 21.2929C29.1054 21.4804 29 21.7348 29 22V32H19C18.7348 32 18.4804 32.1054 18.2929 32.2929C18.1054 32.4804 18 32.7348 18 33V33C18 33.2652 18.1054 33.5196 18.2929 33.7071C18.4804 33.8946 18.7348 34 19 34H29V44C29 44.2652 29.1054 44.5196 29.2929 44.7071C29.4804 44.8946 29.7348 45 30 45C30.2652 45 30.5196 44.8946 30.7071 44.7071C30.8946 44.5196 31 44.2652 31 44V34H41C41.2652 34 41.5196 33.8946 41.7071 33.7071C41.8946 33.5196 42 33.2652 42 33C42 32.7348 41.8946 32.4804 41.7071 32.2929C41.5196 32.1054 41.2652 32 41 32Z" fill="white"/>
</g>
<defs>
<clipPath id="clip0_671_12">
<rect width="24" height="24" fill="white" transform="translate(18 21)"/>
</clipPath>
</defs>
</svg>
