<svg width="60" height="65" viewBox="0 0 60 65" fill="none" xmlns="http://www.w3.org/2000/svg">
<ellipse cx="30" cy="32.5" rx="30" ry="32.5" fill="#C670E9"/>
<g clip-path="url(#clip0_671_11)">
<path d="M35.1699 44.9999C35.0383 45.0007 34.9078 44.9754 34.786 44.9257C34.6641 44.8759 34.5533 44.8026 34.4599 44.7099L26.2899 36.5399C25.8242 36.0755 25.4548 35.5237 25.2027 34.9163C24.9507 34.3088 24.8209 33.6576 24.8209 32.9999C24.8209 32.3423 24.9507 31.691 25.2027 31.0836C25.4548 30.4761 25.8242 29.9244 26.2899 29.4599L34.4599 21.2899C34.5531 21.1967 34.6638 21.1227 34.7856 21.0723C34.9074 21.0218 35.038 20.9958 35.1699 20.9958C35.3017 20.9958 35.4323 21.0218 35.5541 21.0723C35.6759 21.1227 35.7866 21.1967 35.8799 21.2899C35.9731 21.3832 36.0471 21.4939 36.0975 21.6157C36.148 21.7375 36.174 21.8681 36.174 21.9999C36.174 22.1318 36.148 22.2624 36.0975 22.3842C36.0471 22.506 35.9731 22.6167 35.8799 22.7099L27.7099 30.8799C27.1481 31.4424 26.8325 32.2049 26.8325 32.9999C26.8325 33.7949 27.1481 34.5574 27.7099 35.1199L35.8799 43.2899C35.9736 43.3829 36.048 43.4935 36.0988 43.6153C36.1495 43.7372 36.1757 43.8679 36.1757 43.9999C36.1757 44.1319 36.1495 44.2626 36.0988 44.3845C36.048 44.5063 35.9736 44.6169 35.8799 44.7099C35.7864 44.8026 35.6756 44.8759 35.5538 44.9257C35.4319 44.9754 35.3015 45.0007 35.1699 44.9999Z" fill="white"/>
</g>
<defs>
<clipPath id="clip0_671_11">
<rect width="24" height="24" fill="white" transform="translate(18 21)"/>
</clipPath>
</defs>
</svg>
