<svg width="24" height="24" viewBox="0 0 24 24" fill="none" xmlns="http://www.w3.org/2000/svg">
<g clip-path="url(#clip0_526_11)">
<path d="M0.000347137 7.50498C0.00150681 5.69473 0.65737 3.94598 1.84691 2.58143C3.03645 1.21688 4.67939 0.328614 6.47256 0.0805405C8.26573 -0.167533 10.0881 0.241329 11.6034 1.23168C13.1188 2.22203 14.2248 3.72703 14.7173 5.46898C15.0799 6.7351 15.0965 8.07527 14.7653 9.34998L22.6713 17.258C23.0941 17.6778 23.4292 18.1774 23.6574 18.7277C23.8855 19.2781 24.0021 19.8682 24.0003 20.464C23.9996 21.4015 23.6268 22.3005 22.9638 22.9634C22.3008 23.6264 21.4019 23.9992 20.4643 24C19.8686 24.0015 19.2784 23.885 18.7279 23.657C18.1774 23.4291 17.6776 23.0943 17.2573 22.672L16.5853 22C16.2119 21.624 16.0017 21.1159 16.0003 20.586V19H15.0003C14.4699 19 13.9612 18.7893 13.5861 18.4142C13.2111 18.0391 13.0003 17.5304 13.0003 17V16H11.4143C11.1516 16.0007 10.8913 15.9493 10.6486 15.8487C10.4059 15.7481 10.1856 15.6003 10.0003 15.414L9.35035 14.764C8.07625 15.0969 6.736 15.0807 5.47035 14.717C4.02834 14.3077 2.74133 13.4773 1.77414 12.3321C0.806942 11.1869 0.203588 9.77913 0.0413475 8.28898C0.0142784 8.02852 0.000593185 7.76684 0.000347137 7.50498ZM13.0003 7.50498C13.0013 6.48113 12.7165 5.47732 12.178 4.60656C11.6394 3.73581 10.8685 3.03266 9.95196 2.57628C9.03546 2.1199 8.00975 1.92841 6.99031 2.02335C5.97087 2.1183 4.99817 2.49591 4.18171 3.1137C3.36524 3.73148 2.73742 4.5649 2.36893 5.52013C2.00043 6.47537 1.90588 7.51451 2.09593 8.52057C2.28598 9.52662 2.75308 10.4597 3.44464 11.2147C4.13621 11.9696 5.02478 12.5166 6.01035 12.794C7.09381 13.106 8.24776 13.071 9.31035 12.694C9.48781 12.6324 9.67901 12.6221 9.86205 12.6642C10.0451 12.7063 10.2126 12.7991 10.3453 12.932L11.4143 14H13.0003C13.5308 14 14.0395 14.2107 14.4146 14.5858C14.7896 14.9608 15.0003 15.4695 15.0003 16V17H16.0003C16.5308 17 17.0395 17.2107 17.4146 17.5858C17.7896 17.9608 18.0003 18.4695 18.0003 19V20.586L18.6723 21.258C18.9072 21.4939 19.1865 21.681 19.4941 21.8084C19.8017 21.9357 20.1314 22.0008 20.4643 22C20.8715 21.9997 21.2618 21.8379 21.5498 21.5502C21.8378 21.2624 21.9998 20.8721 22.0003 20.465C22.0012 20.1318 21.9359 19.8018 21.8084 19.4941C21.6809 19.1863 21.4936 18.9069 21.2573 18.672L12.9273 10.341C12.7945 10.208 12.7017 10.0403 12.6598 9.85707C12.6179 9.67383 12.6285 9.48248 12.6903 9.30498C12.8945 8.72505 12.9993 8.1148 13.0003 7.49998V7.50498ZM6.00035 4.99998C5.80257 4.99998 5.60923 5.05863 5.44478 5.16851C5.28033 5.27839 5.15215 5.43457 5.07647 5.61729C5.00078 5.80002 4.98098 6.00109 5.01956 6.19507C5.05815 6.38905 5.15339 6.56723 5.29324 6.70708C5.43309 6.84694 5.61127 6.94218 5.80526 6.98076C5.99924 7.01935 6.2003 6.99954 6.38303 6.92386C6.56576 6.84817 6.72194 6.72 6.83182 6.55555C6.9417 6.3911 7.00035 6.19776 7.00035 5.99998C7.00035 5.73476 6.89499 5.48041 6.70745 5.29287C6.51992 5.10533 6.26556 4.99998 6.00035 4.99998Z" fill="#C692EB"/>
</g>
<defs>
<clipPath id="clip0_526_11">
<rect width="24" height="24" fill="white" transform="matrix(0 1 -1 0 24 0)"/>
</clipPath>
</defs>
</svg>
