<svg width="24" height="24" viewBox="0 0 24 24" fill="none" xmlns="http://www.w3.org/2000/svg">
<g clip-path="url(#clip0_526_15)">
<path d="M8.17393 22.4537C10.2779 24.5119 13.6382 24.5203 15.7524 22.4727L19.7368 18.7907C24.053 14.532 24.0995 7.58067 19.8408 3.26446C15.5821 -1.05174 8.63077 -1.09833 4.31457 3.1604C4.27965 3.19485 4.24496 3.22954 4.21051 3.26446C-0.0766824 7.55235 -0.0761199 14.5039 4.21177 18.7911C4.22068 18.8 4.22954 18.8088 4.23849 18.8176L8.17393 22.4537ZM5.62182 4.67573C9.12211 1.15973 14.81 1.14698 18.326 4.64728C21.842 8.14757 21.8547 13.8354 18.3544 17.3514L14.377 21.0264C13.0188 22.3046 10.8979 22.2967 9.54929 21.0084L5.62182 17.3794C2.11379 13.8714 2.11379 8.18381 5.62172 4.67578C5.62177 4.67578 5.62177 4.67578 5.62182 4.67573ZM6.98321 11.0276C6.98321 10.4763 7.43007 10.0295 7.98132 10.0295H15.966C16.5173 10.0295 16.9641 10.4763 16.9641 11.0276C16.9641 11.5788 16.5173 12.0257 15.966 12.0257H7.98132C7.43007 12.0256 6.98321 11.5788 6.98321 11.0276Z" fill="#C692EB"/>
</g>
<defs>
<clipPath id="clip0_526_15">
<rect width="24" height="24" fill="white"/>
</clipPath>
</defs>
</svg>
